<?xml version="1.0" encoding="UTF-8" standalone="no"?>
<!DOCTYPE svg PUBLIC "-//W3C//DTD SVG 1.1//EN"
 "http://www.w3.org/Graphics/SVG/1.1/DTD/svg11.dtd">
<!-- Generated by graphviz version 2.30.1 (20200304.1809)
 -->
<!-- Title: %3 Pages: 1 -->
<svg width="1977pt" height="980pt"
 viewBox="0.00 0.00 1977.00 980.00" xmlns="http://www.w3.org/2000/svg" xmlns:xlink="http://www.w3.org/1999/xlink">
<g id="graph0" class="graph" transform="scale(1 1) rotate(0) translate(4 976)">
<title>%3</title>
<polygon fill="white" stroke="white" points="-4,5 -4,-976 1974,-976 1974,5 -4,5"/>
<!-- rx -->
<g id="node1" class="node"><title>rx</title>
<polygon fill="none" stroke="black" points="930.768,-468 899.232,-468 888,-432 942,-432 930.768,-468"/>
<text text-anchor="middle" x="915" y="-446.3" font-family="Times,serif" font-size="14.00">rx</text>
</g>
<!-- qp -->
<g id="node2" class="node"><title>qp</title>
<polygon fill="none" stroke="black" points="1346,-324 1318.64,-306 1346,-288 1373.36,-306 1346,-324"/>
<text text-anchor="middle" x="1346" y="-302.3" font-family="Times,serif" font-size="14.00">qp</text>
</g>
<!-- ng -->
<g id="node3" class="node"><title>ng</title>
<polygon fill="none" stroke="black" points="1261,-252 1233.64,-234 1261,-216 1288.36,-234 1261,-252"/>
<text text-anchor="middle" x="1261" y="-230.3" font-family="Times,serif" font-size="14.00">ng</text>
</g>
<!-- qp&#45;&gt;ng -->
<g id="edge1" class="edge"><title>qp&#45;&gt;ng</title>
<path fill="none" stroke="black" d="M1334.18,-295.267C1320.35,-283.878 1297.24,-264.847 1280.69,-251.217"/>
<polygon fill="black" stroke="black" points="1282.66,-248.306 1272.72,-244.651 1278.21,-253.709 1282.66,-248.306"/>
</g>
<!-- pl -->
<g id="node4" class="node"><title>pl</title>
<polygon fill="none" stroke="black" points="1184,-804.438 1211,-792 1238,-804.438 1237.97,-824.562 1184.03,-824.562 1184,-804.438"/>
<text text-anchor="middle" x="1211" y="-806.3" font-family="Times,serif" font-size="14.00">pl</text>
</g>
<!-- qp&#45;&gt;pl -->
<g id="edge2" class="edge"><title>qp&#45;&gt;pl</title>
<path fill="none" stroke="black" d="M1356.29,-317.765C1376.62,-340.221 1420,-394.513 1420,-449 1420,-667 1420,-667 1420,-667 1420,-749.522 1307.14,-787.441 1247.29,-801.749"/>
<polygon fill="black" stroke="black" points="1246.44,-798.354 1237.47,-803.999 1248,-805.178 1246.44,-798.354"/>
</g>
<!-- gt -->
<g id="node34" class="node"><title>gt</title>
<polygon fill="none" stroke="black" points="1261,-180 1234,-162 1261,-144 1288,-162 1261,-180"/>
<text text-anchor="middle" x="1261" y="-158.3" font-family="Times,serif" font-size="14.00">gt</text>
</g>
<!-- ng&#45;&gt;gt -->
<g id="edge88" class="edge"><title>ng&#45;&gt;gt</title>
<path fill="none" stroke="black" d="M1261,-215.697C1261,-207.983 1261,-198.712 1261,-190.112"/>
<polygon fill="black" stroke="black" points="1264.5,-190.104 1261,-180.104 1257.5,-190.104 1264.5,-190.104"/>
</g>
<!-- ng&#45;&gt;pl -->
<g id="edge89" class="edge"><title>ng&#45;&gt;pl</title>
<path fill="none" stroke="black" d="M1247.95,-243.971C1220.24,-264.206 1158,-316.394 1158,-377 1158,-595 1158,-595 1158,-595 1158,-665.974 1185.81,-746.407 1201.14,-785.36"/>
<polygon fill="black" stroke="black" points="1197.94,-786.798 1204.92,-794.772 1204.44,-784.188 1197.94,-786.798"/>
</g>
<!-- cz -->
<g id="node41" class="node"><title>cz</title>
<polygon fill="none" stroke="black" points="1346,-396 1319,-378 1346,-360 1373,-378 1346,-396"/>
<text text-anchor="middle" x="1346" y="-374.3" font-family="Times,serif" font-size="14.00">cz</text>
</g>
<!-- pl&#45;&gt;cz -->
<g id="edge68" class="edge"><title>pl&#45;&gt;cz</title>
<path fill="none" stroke="black" d="M1233.36,-802.202C1279.71,-786.567 1382,-743.406 1382,-667 1382,-667 1382,-667 1382,-521 1382,-477.926 1366.24,-429.695 1355.58,-401.983"/>
<polygon fill="black" stroke="black" points="1358.73,-400.424 1351.78,-392.42 1352.22,-403.006 1358.73,-400.424"/>
</g>
<!-- gj -->
<g id="node25" class="node"><title>gj</title>
<polygon fill="none" stroke="black" points="1251,-612 1224,-594 1251,-576 1278,-594 1251,-612"/>
<text text-anchor="middle" x="1251" y="-590.3" font-family="Times,serif" font-size="14.00">gj</text>
</g>
<!-- pl&#45;&gt;gj -->
<g id="edge69" class="edge"><title>pl&#45;&gt;gj</title>
<path fill="none" stroke="black" d="M1216.91,-794.302C1225.84,-771.25 1242.44,-724.986 1249,-684 1252.32,-663.274 1252.68,-639.49 1252.29,-621.726"/>
<polygon fill="black" stroke="black" points="1255.78,-621.409 1251.96,-611.525 1248.78,-621.63 1255.78,-621.409"/>
</g>
<!-- sb -->
<g id="node55" class="node"><title>sb</title>
<polygon fill="none" stroke="black" points="1099,-756 1072,-738 1099,-720 1126,-738 1099,-756"/>
<text text-anchor="middle" x="1099" y="-734.3" font-family="Times,serif" font-size="14.00">sb</text>
</g>
<!-- pl&#45;&gt;sb -->
<g id="edge70" class="edge"><title>pl&#45;&gt;sb</title>
<path fill="none" stroke="black" d="M1194.95,-798.971C1175.48,-786.798 1142.55,-766.216 1120.79,-752.617"/>
<polygon fill="black" stroke="black" points="1122.55,-749.594 1112.22,-747.262 1118.84,-755.53 1122.55,-749.594"/>
</g>
<!-- sv -->
<g id="node56" class="node"><title>sv</title>
<polygon fill="none" stroke="black" points="962,-732.438 989,-720 1016,-732.438 1015.97,-752.562 962.025,-752.562 962,-732.438"/>
<text text-anchor="middle" x="989" y="-734.3" font-family="Times,serif" font-size="14.00">sv</text>
</g>
<!-- pl&#45;&gt;sv -->
<g id="edge71" class="edge"><title>pl&#45;&gt;sv</title>
<path fill="none" stroke="black" d="M1187.02,-802.865C1152.12,-793.737 1085.43,-775.542 1030,-756 1028.59,-755.504 1027.16,-754.985 1025.72,-754.45"/>
<polygon fill="black" stroke="black" points="1026.78,-751.105 1016.19,-750.755 1024.25,-757.632 1026.78,-751.105"/>
</g>
<!-- jn -->
<g id="node49" class="node"><title>jn</title>
<polygon fill="none" stroke="black" points="1165,-900 1138,-882 1165,-864 1192,-882 1165,-900"/>
<text text-anchor="middle" x="1165" y="-878.3" font-family="Times,serif" font-size="14.00">jn</text>
</g>
<!-- pl&#45;&gt;jn -->
<g id="edge72" class="edge"><title>pl&#45;&gt;jn</title>
<path fill="none" stroke="black" d="M1207.46,-824.741C1201.72,-835.774 1191.64,-851.345 1182.58,-863.309"/>
<polygon fill="black" stroke="black" points="1179.73,-861.264 1176.24,-871.267 1185.21,-865.626 1179.73,-861.264"/>
</g>
<!-- zc -->
<g id="node24" class="node"><title>zc</title>
<polygon fill="none" stroke="black" points="1213,-684 1186,-666 1213,-648 1240,-666 1213,-684"/>
<text text-anchor="middle" x="1213" y="-662.3" font-family="Times,serif" font-size="14.00">zc</text>
</g>
<!-- pl&#45;&gt;zc -->
<g id="edge73" class="edge"><title>pl&#45;&gt;zc</title>
<path fill="none" stroke="black" d="M1211.24,-791.871C1211.58,-767.67 1212.21,-723.211 1212.61,-694.393"/>
<polygon fill="black" stroke="black" points="1216.12,-694.238 1212.76,-684.189 1209.12,-694.139 1216.12,-694.238"/>
</g>
<!-- dl -->
<g id="node28" class="node"><title>dl</title>
<polygon fill="none" stroke="black" points="1289,-540 1262,-522 1289,-504 1316,-522 1289,-540"/>
<text text-anchor="middle" x="1289" y="-518.3" font-family="Times,serif" font-size="14.00">dl</text>
</g>
<!-- pl&#45;&gt;dl -->
<g id="edge74" class="edge"><title>pl&#45;&gt;dl</title>
<path fill="none" stroke="black" d="M1222.1,-796.817C1230.85,-786.603 1242.75,-771.276 1250,-756 1278.32,-696.298 1277.98,-677.46 1287,-612 1289.85,-591.333 1290.25,-567.716 1289.99,-550.007"/>
<polygon fill="black" stroke="black" points="1293.49,-549.741 1289.76,-539.822 1286.49,-549.899 1293.49,-549.741"/>
</g>
<!-- mq -->
<g id="node5" class="node"><title>mq</title>
<polygon fill="none" stroke="black" points="191,-324 158.744,-306 191,-288 223.256,-306 191,-324"/>
<text text-anchor="middle" x="191" y="-302.3" font-family="Times,serif" font-size="14.00">mq</text>
</g>
<!-- zz -->
<g id="node6" class="node"><title>zz</title>
<polygon fill="none" stroke="black" points="131,-252 104,-234 131,-216 158,-234 131,-252"/>
<text text-anchor="middle" x="131" y="-230.3" font-family="Times,serif" font-size="14.00">zz</text>
</g>
<!-- mq&#45;&gt;zz -->
<g id="edge3" class="edge"><title>mq&#45;&gt;zz</title>
<path fill="none" stroke="black" d="M181.092,-293.441C171.809,-282.61 157.775,-266.238 146.921,-253.575"/>
<polygon fill="black" stroke="black" points="149.495,-251.199 140.33,-245.885 144.18,-255.755 149.495,-251.199"/>
</g>
<!-- fd -->
<g id="node16" class="node"><title>fd</title>
<polygon fill="none" stroke="black" points="201,-732.438 228,-720 255,-732.438 254.975,-752.562 201.025,-752.562 201,-732.438"/>
<text text-anchor="middle" x="228" y="-734.3" font-family="Times,serif" font-size="14.00">fd</text>
</g>
<!-- zz&#45;&gt;fd -->
<g id="edge61" class="edge"><title>zz&#45;&gt;fd</title>
<path fill="none" stroke="black" d="M127.961,-250.268C123.071,-276.202 114,-330.57 114,-377 114,-595 114,-595 114,-595 114,-651.591 169.738,-698.469 203.266,-721.549"/>
<polygon fill="black" stroke="black" points="201.406,-724.515 211.667,-727.156 205.292,-718.693 201.406,-724.515"/>
</g>
<!-- pz -->
<g id="node26" class="node"><title>pz</title>
<polygon fill="none" stroke="black" points="93,-180 66,-162 93,-144 120,-162 93,-180"/>
<text text-anchor="middle" x="93" y="-158.3" font-family="Times,serif" font-size="14.00">pz</text>
</g>
<!-- zz&#45;&gt;pz -->
<g id="edge62" class="edge"><title>zz&#45;&gt;pz</title>
<path fill="none" stroke="black" d="M124.206,-220.485C118.816,-210.556 111.153,-196.439 104.769,-184.68"/>
<polygon fill="black" stroke="black" points="107.839,-182.999 99.9919,-175.88 101.687,-186.338 107.839,-182.999"/>
</g>
<!-- lq -->
<g id="node7" class="node"><title>lq</title>
<polygon fill="none" stroke="black" points="1807,-396 1780,-378 1807,-360 1834,-378 1807,-396"/>
<text text-anchor="middle" x="1807" y="-374.3" font-family="Times,serif" font-size="14.00">lq</text>
</g>
<!-- zg -->
<g id="node8" class="node"><title>zg</title>
<polygon fill="none" stroke="black" points="1841,-324 1814,-306 1841,-288 1868,-306 1841,-324"/>
<text text-anchor="middle" x="1841" y="-302.3" font-family="Times,serif" font-size="14.00">zg</text>
</g>
<!-- lq&#45;&gt;zg -->
<g id="edge4" class="edge"><title>lq&#45;&gt;zg</title>
<path fill="none" stroke="black" d="M1813.4,-363.834C1818.1,-354.154 1824.6,-340.765 1830.11,-329.414"/>
<polygon fill="black" stroke="black" points="1833.41,-330.632 1834.63,-320.107 1827.12,-327.573 1833.41,-330.632"/>
</g>
<!-- jc -->
<g id="node9" class="node"><title>jc</title>
<polygon fill="none" stroke="black" points="1694,-948.438 1721,-936 1748,-948.438 1747.97,-968.562 1694.03,-968.562 1694,-948.438"/>
<text text-anchor="middle" x="1721" y="-950.3" font-family="Times,serif" font-size="14.00">jc</text>
</g>
<!-- zg&#45;&gt;jc -->
<g id="edge23" class="edge"><title>zg&#45;&gt;jc</title>
<path fill="none" stroke="black" d="M1848.67,-318.99C1863.14,-342.782 1893,-398.068 1893,-449 1893,-811 1893,-811 1893,-811 1893,-882.729 1802.94,-925.002 1753.16,-942.891"/>
<polygon fill="black" stroke="black" points="1751.79,-939.662 1743.49,-946.243 1754.08,-946.276 1751.79,-939.662"/>
</g>
<!-- vn -->
<g id="node29" class="node"><title>vn</title>
<polygon fill="none" stroke="black" points="1841,-252 1813.64,-234 1841,-216 1868.36,-234 1841,-252"/>
<text text-anchor="middle" x="1841" y="-230.3" font-family="Times,serif" font-size="14.00">vn</text>
</g>
<!-- zg&#45;&gt;vn -->
<g id="edge24" class="edge"><title>zg&#45;&gt;vn</title>
<path fill="none" stroke="black" d="M1841,-287.697C1841,-279.983 1841,-270.712 1841,-262.112"/>
<polygon fill="black" stroke="black" points="1844.5,-262.104 1841,-252.104 1837.5,-262.104 1844.5,-262.104"/>
</g>
<!-- ch -->
<g id="node10" class="node"><title>ch</title>
<polygon fill="none" stroke="black" points="944,-804.438 971,-792 998,-804.438 997.975,-824.562 944.025,-824.562 944,-804.438"/>
<text text-anchor="middle" x="971" y="-806.3" font-family="Times,serif" font-size="14.00">ch</text>
</g>
<!-- jc&#45;&gt;ch -->
<g id="edge5" class="edge"><title>jc&#45;&gt;ch</title>
<path fill="none" stroke="black" d="M1693.89,-952.086C1592.62,-948.44 1236.78,-933.476 1129,-900 1079.2,-884.532 1027.69,-851.818 997.539,-830.653"/>
<polygon fill="black" stroke="black" points="999.432,-827.703 989.257,-824.75 995.369,-833.404 999.432,-827.703"/>
</g>
<!-- lx -->
<g id="node11" class="node"><title>lx</title>
<polygon fill="none" stroke="black" points="1779,-612 1752,-594 1779,-576 1806,-594 1779,-612"/>
<text text-anchor="middle" x="1779" y="-590.3" font-family="Times,serif" font-size="14.00">lx</text>
</g>
<!-- jc&#45;&gt;lx -->
<g id="edge6" class="edge"><title>jc&#45;&gt;lx</title>
<path fill="none" stroke="black" d="M1735.17,-942.206C1761.87,-920.511 1817,-868.73 1817,-811 1817,-811 1817,-811 1817,-737 1817,-693.778 1800.37,-645.594 1789.11,-617.932"/>
<polygon fill="black" stroke="black" points="1792.2,-616.254 1785.11,-608.387 1785.75,-618.963 1792.2,-616.254"/>
</g>
<!-- nv -->
<g id="node12" class="node"><title>nv</title>
<polygon fill="none" stroke="black" points="1779,-540 1752,-522 1779,-504 1806,-522 1779,-540"/>
<text text-anchor="middle" x="1779" y="-518.3" font-family="Times,serif" font-size="14.00">nv</text>
</g>
<!-- jc&#45;&gt;nv -->
<g id="edge7" class="edge"><title>jc&#45;&gt;nv</title>
<path fill="none" stroke="black" d="M1711.37,-940.276C1688.15,-908.295 1631,-821.222 1631,-739 1631,-739 1631,-739 1631,-665 1631,-597.915 1711.15,-552.664 1753.49,-533.443"/>
<polygon fill="black" stroke="black" points="1755.13,-536.546 1762.88,-529.324 1752.32,-530.135 1755.13,-536.546"/>
</g>
<!-- ml -->
<g id="node13" class="node"><title>ml</title>
<polygon fill="none" stroke="black" points="1553,-900 1523.88,-882 1553,-864 1582.12,-882 1553,-900"/>
<text text-anchor="middle" x="1553" y="-878.3" font-family="Times,serif" font-size="14.00">ml</text>
</g>
<!-- jc&#45;&gt;ml -->
<g id="edge8" class="edge"><title>jc&#45;&gt;ml</title>
<path fill="none" stroke="black" d="M1699.35,-945.772C1667.89,-933.87 1610.29,-910.006 1577.41,-895.375"/>
<polygon fill="black" stroke="black" points="1578.6,-892.076 1568.05,-891.154 1575.72,-898.456 1578.6,-892.076"/>
</g>
<!-- jc&#45;&gt;lq -->
<g id="edge9" class="edge"><title>jc&#45;&gt;lq</title>
<path fill="none" stroke="black" d="M1706.53,-942.604C1693.72,-932.801 1675.21,-917.093 1663,-900 1617.65,-836.508 1593,-817.026 1593,-739 1593,-739 1593,-739 1593,-521 1593,-433.931 1717.52,-397.07 1776.59,-384.482"/>
<polygon fill="black" stroke="black" points="1777.38,-387.893 1786.48,-382.471 1775.98,-381.033 1777.38,-387.893"/>
</g>
<!-- bs -->
<g id="node14" class="node"><title>bs</title>
<polygon fill="none" stroke="black" points="1686,-828 1659,-810 1686,-792 1713,-810 1686,-828"/>
<text text-anchor="middle" x="1686" y="-806.3" font-family="Times,serif" font-size="14.00">bs</text>
</g>
<!-- jc&#45;&gt;bs -->
<g id="edge10" class="edge"><title>jc&#45;&gt;bs</title>
<path fill="none" stroke="black" d="M1717.19,-937.533C1711.16,-913.078 1699.37,-865.253 1692.14,-835.914"/>
<polygon fill="black" stroke="black" points="1695.49,-834.891 1689.7,-826.019 1688.7,-836.566 1695.49,-834.891"/>
</g>
<!-- cn -->
<g id="node33" class="node"><title>cn</title>
<polygon fill="none" stroke="black" points="888,-516.438 915,-504 942,-516.438 941.975,-536.562 888.025,-536.562 888,-516.438"/>
<text text-anchor="middle" x="915" y="-518.3" font-family="Times,serif" font-size="14.00">cn</text>
</g>
<!-- ch&#45;&gt;cn -->
<g id="edge104" class="edge"><title>ch&#45;&gt;cn</title>
<path fill="none" stroke="black" d="M965.291,-794.346C961.368,-783.813 956.294,-769.2 953,-756 934.236,-680.801 922.458,-589.562 917.585,-547.012"/>
<polygon fill="black" stroke="black" points="921.034,-546.366 916.443,-536.818 914.078,-547.145 921.034,-546.366"/>
</g>
<!-- lx&#45;&gt;nv -->
<g id="edge67" class="edge"><title>lx&#45;&gt;nv</title>
<path fill="none" stroke="black" d="M1779,-575.697C1779,-567.983 1779,-558.712 1779,-550.112"/>
<polygon fill="black" stroke="black" points="1782.5,-550.104 1779,-540.104 1775.5,-550.104 1782.5,-550.104"/>
</g>
<!-- zm -->
<g id="node58" class="node"><title>zm</title>
<polygon fill="none" stroke="black" points="1807,-468 1776.12,-450 1807,-432 1837.88,-450 1807,-468"/>
<text text-anchor="middle" x="1807" y="-446.3" font-family="Times,serif" font-size="14.00">zm</text>
</g>
<!-- nv&#45;&gt;zm -->
<g id="edge98" class="edge"><title>nv&#45;&gt;zm</title>
<path fill="none" stroke="black" d="M1784.4,-507.503C1788.15,-498.135 1793.24,-485.41 1797.64,-474.408"/>
<polygon fill="black" stroke="black" points="1800.96,-475.519 1801.43,-464.934 1794.46,-472.919 1800.96,-475.519"/>
</g>
<!-- ml&#45;&gt;bs -->
<g id="edge40" class="edge"><title>ml&#45;&gt;bs</title>
<path fill="none" stroke="black" d="M1568,-873.106C1591.09,-860.952 1635.53,-837.562 1662.8,-823.212"/>
<polygon fill="black" stroke="black" points="1664.44,-826.301 1671.66,-818.546 1661.18,-820.107 1664.44,-826.301"/>
</g>
<!-- ml&#45;&gt;jc -->
<g id="edge41" class="edge"><title>ml&#45;&gt;jc</title>
<path fill="none" stroke="black" d="M1571.07,-888.88C1600.86,-899.989 1659.75,-924.316 1694.3,-939.606"/>
<polygon fill="black" stroke="black" points="1693.21,-942.954 1703.77,-943.849 1696.07,-936.566 1693.21,-942.954"/>
</g>
<!-- zv -->
<g id="node40" class="node"><title>zv</title>
<polygon fill="none" stroke="black" points="1724,-756 1697,-738 1724,-720 1751,-738 1724,-756"/>
<text text-anchor="middle" x="1724" y="-734.3" font-family="Times,serif" font-size="14.00">zv</text>
</g>
<!-- bs&#45;&gt;zv -->
<g id="edge36" class="edge"><title>bs&#45;&gt;zv</title>
<path fill="none" stroke="black" d="M1692.79,-796.485C1698.18,-786.556 1705.85,-772.439 1712.23,-760.68"/>
<polygon fill="black" stroke="black" points="1715.31,-762.338 1717.01,-751.88 1709.16,-758.999 1715.31,-762.338"/>
</g>
<!-- td -->
<g id="node15" class="node"><title>td</title>
<polygon fill="none" stroke="black" points="292,-828 265,-810 292,-792 319,-810 292,-828"/>
<text text-anchor="middle" x="292" y="-806.3" font-family="Times,serif" font-size="14.00">td</text>
</g>
<!-- td&#45;&gt;fd -->
<g id="edge11" class="edge"><title>td&#45;&gt;fd</title>
<path fill="none" stroke="black" d="M282.28,-798.369C273.013,-788.233 258.798,-772.685 247.239,-760.043"/>
<polygon fill="black" stroke="black" points="249.785,-757.64 240.454,-752.621 244.618,-762.363 249.785,-757.64"/>
</g>
<!-- jl -->
<g id="node17" class="node"><title>jl</title>
<polygon fill="none" stroke="black" points="321,-684 294,-666 321,-648 348,-666 321,-684"/>
<text text-anchor="middle" x="321" y="-662.3" font-family="Times,serif" font-size="14.00">jl</text>
</g>
<!-- td&#45;&gt;jl -->
<g id="edge12" class="edge"><title>td&#45;&gt;jl</title>
<path fill="none" stroke="black" d="M295.104,-793.804C300.075,-769.462 309.874,-721.48 315.89,-692.023"/>
<polygon fill="black" stroke="black" points="319.347,-692.585 317.919,-682.087 312.489,-691.185 319.347,-692.585"/>
</g>
<!-- fd&#45;&gt;jl -->
<g id="edge99" class="edge"><title>fd&#45;&gt;jl</title>
<path fill="none" stroke="black" d="M242.125,-726.369C257.758,-714.602 283.083,-695.54 300.808,-682.199"/>
<polygon fill="black" stroke="black" points="302.938,-684.976 308.822,-676.166 298.728,-679.383 302.938,-684.976"/>
</g>
<!-- hv -->
<g id="node43" class="node"><title>hv</title>
<polygon fill="none" stroke="black" points="245,-540 218,-522 245,-504 272,-522 245,-540"/>
<text text-anchor="middle" x="245" y="-518.3" font-family="Times,serif" font-size="14.00">hv</text>
</g>
<!-- fd&#45;&gt;hv -->
<g id="edge100" class="edge"><title>fd&#45;&gt;hv</title>
<path fill="none" stroke="black" d="M229.306,-720.563C232.236,-683.673 239.358,-594.028 242.911,-549.294"/>
<polygon fill="black" stroke="black" points="246.41,-549.446 243.713,-539.2 239.432,-548.891 246.41,-549.446"/>
</g>
<!-- xs -->
<g id="node18" class="node"><title>xs</title>
<polygon fill="none" stroke="black" points="260,-900 233,-882 260,-864 287,-882 260,-900"/>
<text text-anchor="middle" x="260" y="-878.3" font-family="Times,serif" font-size="14.00">xs</text>
</g>
<!-- fd&#45;&gt;xs -->
<g id="edge101" class="edge"><title>fd&#45;&gt;xs</title>
<path fill="none" stroke="black" d="M235.354,-752.92C243.55,-776.362 254.708,-824.101 259.381,-854.214"/>
<polygon fill="black" stroke="black" points="255.957,-855.005 260.791,-864.433 262.891,-854.048 255.957,-855.005"/>
</g>
<!-- fd&#45;&gt;mq -->
<g id="edge102" class="edge"><title>fd&#45;&gt;mq</title>
<path fill="none" stroke="black" d="M255.07,-733.394C284.648,-727.979 331.241,-714.853 357,-684 382.922,-652.951 376,-635.447 376,-595 376,-595 376,-595 376,-449 376,-372.325 274.764,-331.384 222.069,-315.268"/>
<polygon fill="black" stroke="black" points="222.803,-311.835 212.222,-312.372 220.828,-318.551 222.803,-311.835"/>
</g>
<!-- th -->
<g id="node32" class="node"><title>th</title>
<polygon fill="none" stroke="black" points="766,-660.438 793,-648 820,-660.438 819.975,-680.562 766.025,-680.562 766,-660.438"/>
<text text-anchor="middle" x="793" y="-662.3" font-family="Times,serif" font-size="14.00">th</text>
</g>
<!-- fd&#45;&gt;th -->
<g id="edge103" class="edge"><title>fd&#45;&gt;th</title>
<path fill="none" stroke="black" d="M255.138,-734.36C326.505,-727.313 525.289,-707.026 690,-684 711.909,-680.937 736.342,-676.93 755.911,-673.576"/>
<polygon fill="black" stroke="black" points="756.691,-676.993 765.948,-671.84 755.498,-670.095 756.691,-676.993"/>
</g>
<!-- vp -->
<g id="node47" class="node"><title>vp</title>
<polygon fill="none" stroke="black" points="284,-612 256.639,-594 284,-576 311.361,-594 284,-612"/>
<text text-anchor="middle" x="284" y="-590.3" font-family="Times,serif" font-size="14.00">vp</text>
</g>
<!-- jl&#45;&gt;vp -->
<g id="edge109" class="edge"><title>jl&#45;&gt;vp</title>
<path fill="none" stroke="black" d="M314.214,-652.161C308.998,-642.294 301.672,-628.434 295.541,-616.834"/>
<polygon fill="black" stroke="black" points="298.511,-614.963 290.743,-607.758 292.322,-618.234 298.511,-614.963"/>
</g>
<!-- xs&#45;&gt;td -->
<g id="edge13" class="edge"><title>xs&#45;&gt;td</title>
<path fill="none" stroke="black" d="M266.019,-867.834C270.444,-858.154 276.565,-844.765 281.754,-833.414"/>
<polygon fill="black" stroke="black" points="285.034,-834.657 286.008,-824.107 278.667,-831.747 285.034,-834.657"/>
</g>
<!-- xs&#45;&gt;fd -->
<g id="edge14" class="edge"><title>xs&#45;&gt;fd</title>
<path fill="none" stroke="black" d="M253.113,-868.398C244.602,-844.701 232.605,-793.155 228.163,-762.759"/>
<polygon fill="black" stroke="black" points="231.607,-762.094 226.889,-752.608 224.662,-762.966 231.607,-762.094"/>
</g>
<!-- dg -->
<g id="node19" class="node"><title>dg</title>
<polygon fill="none" stroke="black" points="1913,-180 1885.64,-162 1913,-144 1940.36,-162 1913,-180"/>
<text text-anchor="middle" x="1913" y="-158.3" font-family="Times,serif" font-size="14.00">dg</text>
</g>
<!-- dg&#45;&gt;jc -->
<g id="edge15" class="edge"><title>dg&#45;&gt;jc</title>
<path fill="none" stroke="black" d="M1916.22,-178.259C1921.4,-204.181 1931,-258.53 1931,-305 1931,-811 1931,-811 1931,-811 1931,-893.792 1817.6,-931.585 1757.47,-945.806"/>
<polygon fill="black" stroke="black" points="1756.58,-942.419 1747.6,-948.041 1758.12,-949.246 1756.58,-942.419"/>
</g>
<!-- rd -->
<g id="node20" class="node"><title>rd</title>
<polygon fill="none" stroke="black" points="1941,-108 1914,-90 1941,-72 1968,-90 1941,-108"/>
<text text-anchor="middle" x="1941" y="-86.3" font-family="Times,serif" font-size="14.00">rd</text>
</g>
<!-- dg&#45;&gt;rd -->
<g id="edge16" class="edge"><title>dg&#45;&gt;rd</title>
<path fill="none" stroke="black" d="M1918.4,-147.503C1922.19,-138.013 1927.37,-125.079 1931.81,-113.98"/>
<polygon fill="black" stroke="black" points="1935.15,-115.04 1935.62,-104.455 1928.65,-112.44 1935.15,-115.04"/>
</g>
<!-- rd&#45;&gt;jc -->
<g id="edge25" class="edge"><title>rd&#45;&gt;jc</title>
<path fill="none" stroke="black" d="M1945.62,-104.929C1953.58,-130.163 1969,-185.258 1969,-233 1969,-811 1969,-811 1969,-811 1969,-907.034 1827.22,-939.025 1758.06,-948.918"/>
<polygon fill="black" stroke="black" points="1757.46,-945.467 1748.01,-950.272 1758.39,-952.405 1757.46,-945.467"/>
</g>
<!-- km -->
<g id="node21" class="node"><title>km</title>
<polygon fill="none" stroke="black" points="709,-252 676.744,-234 709,-216 741.256,-234 709,-252"/>
<text text-anchor="middle" x="709" y="-230.3" font-family="Times,serif" font-size="14.00">km</text>
</g>
<!-- rg -->
<g id="node22" class="node"><title>rg</title>
<polygon fill="none" stroke="black" points="709,-180 682,-162 709,-144 736,-162 709,-180"/>
<text text-anchor="middle" x="709" y="-158.3" font-family="Times,serif" font-size="14.00">rg</text>
</g>
<!-- km&#45;&gt;rg -->
<g id="edge17" class="edge"><title>km&#45;&gt;rg</title>
<path fill="none" stroke="black" d="M709,-215.697C709,-207.983 709,-198.712 709,-190.112"/>
<polygon fill="black" stroke="black" points="712.5,-190.104 709,-180.104 705.5,-190.104 712.5,-190.104"/>
</g>
<!-- hm -->
<g id="node23" class="node"><title>hm</title>
<polygon fill="none" stroke="black" points="624.823,-660.438 653,-648 681.177,-660.438 681.151,-680.562 624.849,-680.562 624.823,-660.438"/>
<text text-anchor="middle" x="653" y="-662.3" font-family="Times,serif" font-size="14.00">hm</text>
</g>
<!-- km&#45;&gt;hm -->
<g id="edge18" class="edge"><title>km&#45;&gt;hm</title>
<path fill="none" stroke="black" d="M715.44,-248.763C726.517,-273.734 748,-328.425 748,-377 748,-523 748,-523 748,-523 748,-575.373 702.806,-623.052 674.761,-647.598"/>
<polygon fill="black" stroke="black" points="672.375,-645.033 667.018,-654.173 676.906,-650.369 672.375,-645.033"/>
</g>
<!-- rg&#45;&gt;hm -->
<g id="edge85" class="edge"><title>rg&#45;&gt;hm</title>
<path fill="none" stroke="black" d="M719.385,-173.347C740.402,-195.445 786,-249.753 786,-305 786,-523 786,-523 786,-523 786,-583.876 720.081,-629.417 681.059,-651.043"/>
<polygon fill="black" stroke="black" points="678.933,-648.211 671.774,-656.02 682.241,-654.38 678.933,-648.211"/>
</g>
<!-- qf -->
<g id="node52" class="node"><title>qf</title>
<polygon fill="none" stroke="black" points="541,-108 514,-90 541,-72 568,-90 541,-108"/>
<text text-anchor="middle" x="541" y="-86.3" font-family="Times,serif" font-size="14.00">qf</text>
</g>
<!-- rg&#45;&gt;qf -->
<g id="edge86" class="edge"><title>rg&#45;&gt;qf</title>
<path fill="none" stroke="black" d="M693.195,-154.415C664.052,-142.272 601.622,-116.259 566.447,-101.603"/>
<polygon fill="black" stroke="black" points="567.462,-98.2344 556.885,-97.6189 564.77,-104.696 567.462,-98.2344"/>
</g>
<!-- kl -->
<g id="node36" class="node"><title>kl</title>
<polygon fill="none" stroke="black" points="676,-900 649,-882 676,-864 703,-882 676,-900"/>
<text text-anchor="middle" x="676" y="-878.3" font-family="Times,serif" font-size="14.00">kl</text>
</g>
<!-- hm&#45;&gt;kl -->
<g id="edge31" class="edge"><title>hm&#45;&gt;kl</title>
<path fill="none" stroke="black" d="M658.013,-680.787C665.689,-715.916 676.073,-809.23 677.802,-854.977"/>
<polygon fill="black" stroke="black" points="674.31,-855.35 678.047,-865.264 681.308,-855.184 674.31,-855.35"/>
</g>
<!-- gh -->
<g id="node37" class="node"><title>gh</title>
<polygon fill="none" stroke="black" points="814,-588.438 841,-576 868,-588.438 867.975,-608.562 814.025,-608.562 814,-588.438"/>
<text text-anchor="middle" x="841" y="-590.3" font-family="Times,serif" font-size="14.00">gh</text>
</g>
<!-- hm&#45;&gt;gh -->
<g id="edge32" class="edge"><title>hm&#45;&gt;gh</title>
<path fill="none" stroke="black" d="M675.036,-657.418C703.891,-647.407 755.982,-629.05 800,-612 801.392,-611.461 802.808,-610.906 804.237,-610.34"/>
<polygon fill="black" stroke="black" points="805.757,-613.502 813.725,-606.519 803.141,-607.009 805.757,-613.502"/>
</g>
<!-- tl -->
<g id="node38" class="node"><title>tl</title>
<polygon fill="none" stroke="black" points="579,-540 552,-522 579,-504 606,-522 579,-540"/>
<text text-anchor="middle" x="579" y="-518.3" font-family="Times,serif" font-size="14.00">tl</text>
</g>
<!-- hm&#45;&gt;tl -->
<g id="edge33" class="edge"><title>hm&#45;&gt;tl</title>
<path fill="none" stroke="black" d="M644.116,-651.769C637.185,-641.211 627.508,-625.931 620,-612 608.151,-590.014 596.408,-563.974 588.547,-545.761"/>
<polygon fill="black" stroke="black" points="591.748,-544.346 584.602,-536.524 585.31,-547.095 591.748,-544.346"/>
</g>
<!-- xx -->
<g id="node31" class="node"><title>xx</title>
<polygon fill="none" stroke="black" points="692,-324 664.639,-306 692,-288 719.361,-306 692,-324"/>
<text text-anchor="middle" x="692" y="-302.3" font-family="Times,serif" font-size="14.00">xx</text>
</g>
<!-- hm&#45;&gt;xx -->
<g id="edge34" class="edge"><title>hm&#45;&gt;xx</title>
<path fill="none" stroke="black" d="M662.158,-651.998C678.271,-627.811 710,-573.739 710,-523 710,-523 710,-523 710,-449 710,-407.795 702.448,-360.393 697.128,-332.11"/>
<polygon fill="black" stroke="black" points="700.557,-331.41 695.218,-322.259 693.685,-332.742 700.557,-331.41"/>
</g>
<!-- zq -->
<g id="node39" class="node"><title>zq</title>
<polygon fill="none" stroke="black" points="431,-612 404,-594 431,-576 458,-594 431,-612"/>
<text text-anchor="middle" x="431" y="-590.3" font-family="Times,serif" font-size="14.00">zq</text>
</g>
<!-- hm&#45;&gt;zq -->
<g id="edge35" class="edge"><title>hm&#45;&gt;zq</title>
<path fill="none" stroke="black" d="M628.434,-658.712C593.372,-649.534 527.121,-631.434 472,-612 466.774,-610.158 461.25,-608.009 456.006,-605.872"/>
<polygon fill="black" stroke="black" points="456.998,-602.492 446.422,-601.858 454.294,-608.949 456.998,-602.492"/>
</g>
<!-- zc&#45;&gt;gj -->
<g id="edge19" class="edge"><title>zc&#45;&gt;gj</title>
<path fill="none" stroke="black" d="M1219.79,-652.485C1225.18,-642.556 1232.85,-628.439 1239.23,-616.68"/>
<polygon fill="black" stroke="black" points="1242.31,-618.338 1244.01,-607.88 1236.16,-614.999 1242.31,-618.338"/>
</g>
<!-- gj&#45;&gt;dl -->
<g id="edge22" class="edge"><title>gj&#45;&gt;dl</title>
<path fill="none" stroke="black" d="M1257.79,-580.485C1263.18,-570.556 1270.85,-556.439 1277.23,-544.68"/>
<polygon fill="black" stroke="black" points="1280.31,-546.338 1282.01,-535.88 1274.16,-542.999 1280.31,-546.338"/>
</g>
<!-- qh -->
<g id="node27" class="node"><title>qh</title>
<polygon fill="none" stroke="black" points="56,-108 28.6385,-90 56,-72 83.3615,-90 56,-108"/>
<text text-anchor="middle" x="56" y="-86.3" font-family="Times,serif" font-size="14.00">qh</text>
</g>
<!-- pz&#45;&gt;qh -->
<g id="edge20" class="edge"><title>pz&#45;&gt;qh</title>
<path fill="none" stroke="black" d="M86.2136,-148.161C80.998,-138.294 73.6723,-124.434 67.5406,-112.834"/>
<polygon fill="black" stroke="black" points="70.5108,-110.963 62.7433,-103.758 64.3221,-114.234 70.5108,-110.963"/>
</g>
<!-- pz&#45;&gt;fd -->
<g id="edge21" class="edge"><title>pz&#45;&gt;fd</title>
<path fill="none" stroke="black" d="M89.9607,-178.268C85.0709,-204.202 76,-258.57 76,-305 76,-595 76,-595 76,-595 76,-640.59 94.1708,-652.367 127,-684 147.033,-703.303 175.494,-717.381 197.101,-726.156"/>
<polygon fill="black" stroke="black" points="195.903,-729.445 206.492,-729.814 198.444,-722.922 195.903,-729.445"/>
</g>
<!-- bj -->
<g id="node57" class="node"><title>bj</title>
<polygon fill="none" stroke="black" points="28,-36 1,-18 28,-3.55271e-15 55,-18 28,-36"/>
<text text-anchor="middle" x="28" y="-14.3" font-family="Times,serif" font-size="14.00">bj</text>
</g>
<!-- qh&#45;&gt;bj -->
<g id="edge90" class="edge"><title>qh&#45;&gt;bj</title>
<path fill="none" stroke="black" d="M50.6013,-75.5033C46.8052,-66.0131 41.6316,-53.0791 37.1922,-41.9804"/>
<polygon fill="black" stroke="black" points="40.3457,-40.4402 33.3821,-32.4553 33.8464,-43.0399 40.3457,-40.4402"/>
</g>
<!-- qh&#45;&gt;fd -->
<g id="edge91" class="edge"><title>qh&#45;&gt;fd</title>
<path fill="none" stroke="black" d="M52.782,-106.259C47.6045,-132.181 38,-186.53 38,-233 38,-595 38,-595 38,-595 38,-640.59 54.3482,-654.374 89,-684 118.237,-708.996 160.504,-722.847 190.743,-730.06"/>
<polygon fill="black" stroke="black" points="190.371,-733.564 200.896,-732.342 191.906,-726.734 190.371,-733.564"/>
</g>
<!-- rj -->
<g id="node59" class="node"><title>rj</title>
<polygon fill="none" stroke="black" points="1327,-468 1300,-450 1327,-432 1354,-450 1327,-468"/>
<text text-anchor="middle" x="1327" y="-446.3" font-family="Times,serif" font-size="14.00">rj</text>
</g>
<!-- dl&#45;&gt;rj -->
<g id="edge92" class="edge"><title>dl&#45;&gt;rj</title>
<path fill="none" stroke="black" d="M1295.79,-508.485C1301.18,-498.556 1308.85,-484.439 1315.23,-472.68"/>
<polygon fill="black" stroke="black" points="1318.31,-474.338 1320.01,-463.88 1312.16,-470.999 1318.31,-474.338"/>
</g>
<!-- vn&#45;&gt;jc -->
<g id="edge95" class="edge"><title>vn&#45;&gt;jc</title>
<path fill="none" stroke="black" d="M1820.71,-238.742C1746.75,-252.946 1496,-306.319 1496,-377 1496,-811 1496,-811 1496,-811 1496,-851.447 1487,-870.813 1515,-900 1538.07,-924.046 1630.99,-940.528 1683.81,-948.161"/>
<polygon fill="black" stroke="black" points="1683.42,-951.64 1693.81,-949.569 1684.39,-944.709 1683.42,-951.64"/>
</g>
<!-- vn&#45;&gt;dg -->
<g id="edge96" class="edge"><title>vn&#45;&gt;dg</title>
<path fill="none" stroke="black" d="M1851.62,-222.671C1863,-211.608 1881.27,-193.853 1894.92,-180.582"/>
<polygon fill="black" stroke="black" points="1897.6,-182.851 1902.33,-173.371 1892.72,-177.832 1897.6,-182.851"/>
</g>
<!-- mm -->
<g id="node30" class="node"><title>mm</title>
<polygon fill="none" stroke="black" points="646,-396 610.727,-378 646,-360 681.273,-378 646,-396"/>
<text text-anchor="middle" x="646" y="-374.3" font-family="Times,serif" font-size="14.00">mm</text>
</g>
<!-- mm&#45;&gt;xx -->
<g id="edge26" class="edge"><title>mm&#45;&gt;xx</title>
<path fill="none" stroke="black" d="M654.437,-364.161C661.134,-353.97 670.628,-339.522 678.396,-327.701"/>
<polygon fill="black" stroke="black" points="681.358,-329.567 683.925,-319.288 675.508,-325.723 681.358,-329.567"/>
</g>
<!-- mm&#45;&gt;hm -->
<g id="edge27" class="edge"><title>mm&#45;&gt;hm</title>
<path fill="none" stroke="black" d="M648.569,-394.72C650.166,-405.24 652.084,-419.411 653,-432 658.424,-506.572 656.015,-594.924 654.257,-638.282"/>
<polygon fill="black" stroke="black" points="650.759,-638.16 653.83,-648.301 657.753,-638.459 650.759,-638.16"/>
</g>
<!-- xx&#45;&gt;km -->
<g id="edge84" class="edge"><title>xx&#45;&gt;km</title>
<path fill="none" stroke="black" d="M695.605,-290.155C697.718,-281.457 700.441,-270.241 702.881,-260.196"/>
<polygon fill="black" stroke="black" points="706.324,-260.851 705.282,-250.308 699.521,-259.199 706.324,-260.851"/>
</g>
<!-- th&#45;&gt;cn -->
<g id="edge28" class="edge"><title>th&#45;&gt;cn</title>
<path fill="none" stroke="black" d="M812.381,-656.927C831.121,-648.259 859.217,-632.868 877,-612 893.274,-592.902 903.493,-565.798 909.183,-546.528"/>
<polygon fill="black" stroke="black" points="912.6,-547.3 911.887,-536.729 905.853,-545.437 912.6,-547.3"/>
</g>
<!-- cn&#45;&gt;rx -->
<g id="edge105" class="edge"><title>cn&#45;&gt;rx</title>
<path fill="none" stroke="black" d="M915,-503.697C915,-495.983 915,-486.712 915,-478.112"/>
<polygon fill="black" stroke="black" points="918.5,-478.104 915,-468.104 911.5,-478.104 918.5,-478.104"/>
</g>
<!-- dk -->
<g id="node35" class="node"><title>dk</title>
<polygon fill="none" stroke="black" points="1120,-108 1092.64,-90 1120,-72 1147.36,-90 1120,-108"/>
<text text-anchor="middle" x="1120" y="-86.3" font-family="Times,serif" font-size="14.00">dk</text>
</g>
<!-- gt&#45;&gt;dk -->
<g id="edge29" class="edge"><title>gt&#45;&gt;dk</title>
<path fill="none" stroke="black" d="M1246.18,-153.641C1221.91,-141.594 1173.48,-117.551 1144.19,-103.008"/>
<polygon fill="black" stroke="black" points="1145.56,-99.7828 1135.05,-98.471 1142.45,-106.053 1145.56,-99.7828"/>
</g>
<!-- gt&#45;&gt;pl -->
<g id="edge30" class="edge"><title>gt&#45;&gt;pl</title>
<path fill="none" stroke="black" d="M1280.61,-167.195C1330.44,-179.126 1458,-218.15 1458,-305 1458,-667 1458,-667 1458,-667 1458,-762.508 1317.48,-794.725 1248.42,-804.792"/>
<polygon fill="black" stroke="black" points="1247.81,-801.343 1238.38,-806.172 1248.76,-808.278 1247.81,-801.343"/>
</g>
<!-- dk&#45;&gt;pl -->
<g id="edge93" class="edge"><title>dk&#45;&gt;pl</title>
<path fill="none" stroke="black" d="M1120,-108.049C1120,-134.708 1120,-187.885 1120,-233 1120,-595 1120,-595 1120,-595 1120,-670.925 1169.11,-750.787 1195.18,-787.827"/>
<polygon fill="black" stroke="black" points="1192.58,-790.216 1201.26,-796.293 1198.27,-786.13 1192.58,-790.216"/>
</g>
<!-- bc -->
<g id="node45" class="node"><title>bc</title>
<polygon fill="none" stroke="black" points="1082,-36 1055,-18 1082,-3.55271e-15 1109,-18 1082,-36"/>
<text text-anchor="middle" x="1082" y="-14.3" font-family="Times,serif" font-size="14.00">bc</text>
</g>
<!-- dk&#45;&gt;bc -->
<g id="edge94" class="edge"><title>dk&#45;&gt;bc</title>
<path fill="none" stroke="black" d="M1113.03,-76.1609C1107.67,-66.2935 1100.15,-52.434 1093.85,-40.8336"/>
<polygon fill="black" stroke="black" points="1096.77,-38.8764 1088.93,-31.7577 1090.62,-42.2161 1096.77,-38.8764"/>
</g>
<!-- kl&#45;&gt;hm -->
<g id="edge65" class="edge"><title>kl&#45;&gt;hm</title>
<path fill="none" stroke="black" d="M671.003,-867.288C663.203,-831.655 652.594,-735.791 651.121,-690.857"/>
<polygon fill="black" stroke="black" points="654.616,-690.539 650.951,-680.598 647.617,-690.655 654.616,-690.539"/>
</g>
<!-- tx -->
<g id="node50" class="node"><title>tx</title>
<polygon fill="none" stroke="black" points="612,-828 585,-810 612,-792 639,-810 612,-828"/>
<text text-anchor="middle" x="612" y="-806.3" font-family="Times,serif" font-size="14.00">tx</text>
</g>
<!-- kl&#45;&gt;tx -->
<g id="edge66" class="edge"><title>kl&#45;&gt;tx</title>
<path fill="none" stroke="black" d="M666.28,-870.369C656.318,-859.473 640.638,-842.323 628.687,-829.251"/>
<polygon fill="black" stroke="black" points="631.143,-826.75 621.812,-821.732 625.976,-831.474 631.143,-826.75"/>
</g>
<!-- gh&#45;&gt;cn -->
<g id="edge97" class="edge"><title>gh&#45;&gt;cn</title>
<path fill="none" stroke="black" d="M853.22,-581.441C864.063,-571.183 880.163,-555.954 893.208,-543.614"/>
<polygon fill="black" stroke="black" points="895.614,-546.156 900.474,-536.741 890.804,-541.07 895.614,-546.156"/>
</g>
<!-- vg -->
<g id="node42" class="node"><title>vg</title>
<polygon fill="none" stroke="black" points="617,-468 590,-450 617,-432 644,-450 617,-468"/>
<text text-anchor="middle" x="617" y="-446.3" font-family="Times,serif" font-size="14.00">vg</text>
</g>
<!-- tl&#45;&gt;vg -->
<g id="edge38" class="edge"><title>tl&#45;&gt;vg</title>
<path fill="none" stroke="black" d="M585.794,-508.485C591.184,-498.556 598.847,-484.439 605.231,-472.68"/>
<polygon fill="black" stroke="black" points="608.313,-474.338 610.008,-463.88 602.161,-470.999 608.313,-474.338"/>
</g>
<!-- zq&#45;&gt;tl -->
<g id="edge106" class="edge"><title>zq&#45;&gt;tl</title>
<path fill="none" stroke="black" d="M446.005,-585.903C471.602,-573.796 523.92,-549.051 554.758,-534.466"/>
<polygon fill="black" stroke="black" points="556.411,-537.556 563.955,-530.116 553.418,-531.228 556.411,-537.556"/>
</g>
<!-- xm -->
<g id="node46" class="node"><title>xm</title>
<polygon fill="none" stroke="black" points="1757,-684 1724.74,-666 1757,-648 1789.26,-666 1757,-684"/>
<text text-anchor="middle" x="1757" y="-662.3" font-family="Times,serif" font-size="14.00">xm</text>
</g>
<!-- zv&#45;&gt;xm -->
<g id="edge57" class="edge"><title>zv&#45;&gt;xm</title>
<path fill="none" stroke="black" d="M1730.21,-723.834C1734.71,-714.277 1740.92,-701.103 1746.23,-689.846"/>
<polygon fill="black" stroke="black" points="1749.5,-691.123 1750.6,-680.585 1743.17,-688.138 1749.5,-691.123"/>
</g>
<!-- zv&#45;&gt;jc -->
<g id="edge58" class="edge"><title>zv&#45;&gt;jc</title>
<path fill="none" stroke="black" d="M1723.76,-755.935C1723.25,-792.847 1722.01,-880.825 1721.38,-925.685"/>
<polygon fill="black" stroke="black" points="1717.88,-925.801 1721.24,-935.849 1724.88,-925.899 1717.88,-925.801"/>
</g>
<!-- cz&#45;&gt;qp -->
<g id="edge37" class="edge"><title>cz&#45;&gt;qp</title>
<path fill="none" stroke="black" d="M1346,-359.697C1346,-351.983 1346,-342.712 1346,-334.112"/>
<polygon fill="black" stroke="black" points="1349.5,-334.104 1346,-324.104 1342.5,-334.104 1349.5,-334.104"/>
</g>
<!-- vg&#45;&gt;hm -->
<g id="edge59" class="edge"><title>vg&#45;&gt;hm</title>
<path fill="none" stroke="black" d="M619.591,-466.402C625.699,-502.71 641.052,-593.978 648.63,-639.025"/>
<polygon fill="black" stroke="black" points="645.184,-639.634 650.294,-648.915 652.087,-638.473 645.184,-639.634"/>
</g>
<!-- vg&#45;&gt;mm -->
<g id="edge60" class="edge"><title>vg&#45;&gt;mm</title>
<path fill="none" stroke="black" d="M622.591,-435.503C626.422,-426.256 631.608,-413.74 636.124,-402.838"/>
<polygon fill="black" stroke="black" points="639.432,-403.997 640.026,-393.419 632.965,-401.318 639.432,-403.997"/>
</g>
<!-- xd -->
<g id="node44" class="node"><title>xd</title>
<polygon fill="none" stroke="black" points="208,-468 180.639,-450 208,-432 235.361,-450 208,-468"/>
<text text-anchor="middle" x="208" y="-446.3" font-family="Times,serif" font-size="14.00">xd</text>
</g>
<!-- hv&#45;&gt;xd -->
<g id="edge39" class="edge"><title>hv&#45;&gt;xd</title>
<path fill="none" stroke="black" d="M238.214,-508.161C232.998,-498.294 225.672,-484.434 219.541,-472.834"/>
<polygon fill="black" stroke="black" points="222.511,-470.963 214.743,-463.758 216.322,-474.234 222.511,-470.963"/>
</g>
<!-- xd&#45;&gt;fd -->
<g id="edge63" class="edge"><title>xd&#45;&gt;fd</title>
<path fill="none" stroke="black" d="M207.762,-468.076C207.613,-486.003 207.657,-515.003 209,-540 212.29,-601.207 220.221,-672.771 224.727,-710.537"/>
<polygon fill="black" stroke="black" points="221.279,-711.182 225.954,-720.69 228.229,-710.343 221.279,-711.182"/>
</g>
<!-- lt -->
<g id="node54" class="node"><title>lt</title>
<polygon fill="none" stroke="black" points="191,-396 164,-378 191,-360 218,-378 191,-396"/>
<text text-anchor="middle" x="191" y="-374.3" font-family="Times,serif" font-size="14.00">lt</text>
</g>
<!-- xd&#45;&gt;lt -->
<g id="edge64" class="edge"><title>xd&#45;&gt;lt</title>
<path fill="none" stroke="black" d="M204.395,-434.155C202.254,-425.338 199.484,-413.933 197.019,-403.784"/>
<polygon fill="black" stroke="black" points="200.361,-402.715 194.6,-393.824 193.559,-404.367 200.361,-402.715"/>
</g>
<!-- bc&#45;&gt;pl -->
<g id="edge42" class="edge"><title>bc&#45;&gt;pl</title>
<path fill="none" stroke="black" d="M1075.89,-32.3875C1065.15,-57.2022 1044,-112.256 1044,-161 1044,-667 1044,-667 1044,-667 1044,-707.447 1036.37,-725.555 1063,-756 1091.09,-788.115 1140.06,-800.771 1173.94,-805.758"/>
<polygon fill="black" stroke="black" points="1173.56,-809.238 1183.93,-807.073 1174.47,-802.298 1173.56,-809.238"/>
</g>
<!-- xm&#45;&gt;jc -->
<g id="edge43" class="edge"><title>xm&#45;&gt;jc</title>
<path fill="none" stroke="black" d="M1758.19,-683.699C1758.87,-694.129 1759.66,-707.84 1760,-720 1762.28,-800.618 1755.06,-821.397 1737,-900 1734.83,-909.426 1731.9,-919.631 1729.13,-928.545"/>
<polygon fill="black" stroke="black" points="1725.73,-927.703 1726.02,-938.294 1732.4,-929.832 1725.73,-927.703"/>
</g>
<!-- xm&#45;&gt;lx -->
<g id="edge44" class="edge"><title>xm&#45;&gt;lx</title>
<path fill="none" stroke="black" d="M1761.56,-650.496C1764.39,-641.486 1768.1,-629.677 1771.37,-619.27"/>
<polygon fill="black" stroke="black" points="1774.79,-620.075 1774.45,-609.485 1768.11,-617.976 1774.79,-620.075"/>
</g>
<!-- vp&#45;&gt;fd -->
<g id="edge45" class="edge"><title>vp&#45;&gt;fd</title>
<path fill="none" stroke="black" d="M278.637,-608.598C269.119,-632.733 249.167,-683.327 237.347,-713.298"/>
<polygon fill="black" stroke="black" points="234.091,-712.016 233.678,-722.603 240.602,-714.584 234.091,-712.016"/>
</g>
<!-- vp&#45;&gt;hv -->
<g id="edge46" class="edge"><title>vp&#45;&gt;hv</title>
<path fill="none" stroke="black" d="M277.028,-580.485C271.426,-570.432 263.433,-556.085 256.834,-544.24"/>
<polygon fill="black" stroke="black" points="259.837,-542.438 251.912,-535.406 253.722,-545.845 259.837,-542.438"/>
</g>
<!-- broadcaster -->
<g id="node48" class="node"><title>broadcaster</title>
<polygon fill="none" stroke="black" points="912.706,-936 997.294,-936 1027.42,-972 882.58,-972 912.706,-936"/>
<text text-anchor="middle" x="955" y="-950.3" font-family="Times,serif" font-size="14.00">broadcaster</text>
</g>
<!-- broadcaster&#45;&gt;kl -->
<g id="edge47" class="edge"><title>broadcaster&#45;&gt;kl</title>
<path fill="none" stroke="black" d="M907.987,-941.205C849.68,-926.576 752.139,-902.103 704.259,-890.09"/>
<polygon fill="black" stroke="black" points="705.107,-886.695 694.556,-887.656 703.404,-893.484 705.107,-886.695"/>
</g>
<!-- broadcaster&#45;&gt;ml -->
<g id="edge48" class="edge"><title>broadcaster&#45;&gt;ml</title>
<path fill="none" stroke="black" d="M1006.5,-946.971C1126.23,-932.957 1420.63,-898.495 1519.78,-886.888"/>
<polygon fill="black" stroke="black" points="1520.3,-890.351 1529.83,-885.712 1519.49,-883.399 1520.3,-890.351"/>
</g>
<!-- broadcaster&#45;&gt;xs -->
<g id="edge49" class="edge"><title>broadcaster&#45;&gt;xs</title>
<path fill="none" stroke="black" d="M902.762,-947.739C766.504,-934.015 403.182,-897.421 292.471,-886.271"/>
<polygon fill="black" stroke="black" points="292.57,-882.763 282.27,-885.243 291.869,-889.728 292.57,-882.763"/>
</g>
<!-- broadcaster&#45;&gt;jn -->
<g id="edge50" class="edge"><title>broadcaster&#45;&gt;jn</title>
<path fill="none" stroke="black" d="M999.279,-938.24C1041.34,-924.221 1103.2,-903.601 1138.23,-891.925"/>
<polygon fill="black" stroke="black" points="1139.39,-895.226 1147.77,-888.743 1137.18,-888.585 1139.39,-895.226"/>
</g>
<!-- jn&#45;&gt;pl -->
<g id="edge77" class="edge"><title>jn&#45;&gt;pl</title>
<path fill="none" stroke="black" d="M1168.94,-866.496C1174.02,-856.89 1182.17,-844.104 1190.06,-833.226"/>
<polygon fill="black" stroke="black" points="1193.03,-835.097 1196.27,-825.008 1187.45,-830.879 1193.03,-835.097"/>
</g>
<!-- jn&#45;&gt;sb -->
<g id="edge78" class="edge"><title>jn&#45;&gt;sb</title>
<path fill="none" stroke="black" d="M1158.91,-867.896C1147.61,-843.591 1123.3,-791.282 1109.37,-761.309"/>
<polygon fill="black" stroke="black" points="1112.46,-759.666 1105.08,-752.073 1106.12,-762.616 1112.46,-759.666"/>
</g>
<!-- xt -->
<g id="node51" class="node"><title>xt</title>
<polygon fill="none" stroke="black" points="574,-756 547,-738 574,-720 601,-738 574,-756"/>
<text text-anchor="middle" x="574" y="-734.3" font-family="Times,serif" font-size="14.00">xt</text>
</g>
<!-- tx&#45;&gt;xt -->
<g id="edge51" class="edge"><title>tx&#45;&gt;xt</title>
<path fill="none" stroke="black" d="M605.206,-796.485C599.816,-786.556 592.153,-772.439 585.769,-760.68"/>
<polygon fill="black" stroke="black" points="588.839,-758.999 580.992,-751.88 582.687,-762.338 588.839,-758.999"/>
</g>
<!-- tx&#45;&gt;hm -->
<g id="edge52" class="edge"><title>tx&#45;&gt;hm</title>
<path fill="none" stroke="black" d="M616.157,-794.603C623.228,-770.112 637.662,-720.123 646.214,-690.504"/>
<polygon fill="black" stroke="black" points="649.662,-691.177 649.074,-680.598 642.937,-689.235 649.662,-691.177"/>
</g>
<!-- xt&#45;&gt;zq -->
<g id="edge55" class="edge"><title>xt&#45;&gt;zq</title>
<path fill="none" stroke="black" d="M563.716,-726.788C539.613,-702.854 479.231,-642.894 448.932,-612.806"/>
<polygon fill="black" stroke="black" points="451.139,-610.066 441.577,-605.503 446.207,-615.033 451.139,-610.066"/>
</g>
<!-- xt&#45;&gt;hm -->
<g id="edge56" class="edge"><title>xt&#45;&gt;hm</title>
<path fill="none" stroke="black" d="M584.985,-727.267C596.503,-717.06 614.949,-700.716 629.727,-687.622"/>
<polygon fill="black" stroke="black" points="632.329,-689.993 637.492,-680.741 627.687,-684.753 632.329,-689.993"/>
</g>
<!-- bf -->
<g id="node53" class="node"><title>bf</title>
<polygon fill="none" stroke="black" points="513,-36 486,-18 513,-3.55271e-15 540,-18 513,-36"/>
<text text-anchor="middle" x="513" y="-14.3" font-family="Times,serif" font-size="14.00">bf</text>
</g>
<!-- qf&#45;&gt;bf -->
<g id="edge53" class="edge"><title>qf&#45;&gt;bf</title>
<path fill="none" stroke="black" d="M535.601,-75.5033C531.805,-66.0131 526.632,-53.0791 522.192,-41.9804"/>
<polygon fill="black" stroke="black" points="525.346,-40.4402 518.382,-32.4553 518.846,-43.0399 525.346,-40.4402"/>
</g>
<!-- qf&#45;&gt;hm -->
<g id="edge54" class="edge"><title>qf&#45;&gt;hm</title>
<path fill="none" stroke="black" d="M537.961,-106.268C533.071,-132.202 524,-186.57 524,-233 524,-523 524,-523 524,-523 524,-583.027 587.936,-628.915 625.785,-650.82"/>
<polygon fill="black" stroke="black" points="624.356,-654.031 634.791,-655.866 627.778,-647.924 624.356,-654.031"/>
</g>
<!-- bf&#45;&gt;hm -->
<g id="edge76" class="edge"><title>bf&#45;&gt;hm</title>
<path fill="none" stroke="black" d="M508.42,-33.3423C500.717,-58.7757 486,-113.571 486,-161 486,-523 486,-523 486,-523 486,-569.038 504.83,-581.147 539,-612 562.065,-632.827 594.738,-646.881 619.197,-655.255"/>
<polygon fill="black" stroke="black" points="618.199,-658.611 628.792,-658.395 620.376,-651.958 618.199,-658.611"/>
</g>
<!-- lt&#45;&gt;mq -->
<g id="edge82" class="edge"><title>lt&#45;&gt;mq</title>
<path fill="none" stroke="black" d="M191,-359.697C191,-351.983 191,-342.712 191,-334.112"/>
<polygon fill="black" stroke="black" points="194.5,-334.104 191,-324.104 187.5,-334.104 194.5,-334.104"/>
</g>
<!-- lt&#45;&gt;fd -->
<g id="edge83" class="edge"><title>lt&#45;&gt;fd</title>
<path fill="none" stroke="black" d="M184.906,-391.984C173.938,-416.582 152,-471.914 152,-521 152,-595 152,-595 152,-595 152,-643.696 187.172,-691.853 209.662,-717.669"/>
<polygon fill="black" stroke="black" points="207.172,-720.135 216.457,-725.238 212.381,-715.459 207.172,-720.135"/>
</g>
<!-- sb&#45;&gt;zc -->
<g id="edge87" class="edge"><title>sb&#45;&gt;zc</title>
<path fill="none" stroke="black" d="M1112.52,-728.695C1131.81,-716.854 1167.44,-694.978 1190.67,-680.711"/>
<polygon fill="black" stroke="black" points="1192.8,-683.509 1199.49,-675.294 1189.14,-677.544 1192.8,-683.509"/>
</g>
<!-- sv&#45;&gt;cn -->
<g id="edge81" class="edge"><title>sv&#45;&gt;cn</title>
<path fill="none" stroke="black" d="M986.593,-720.933C981.798,-691.355 969.612,-626.675 948,-576 943.471,-565.382 936.999,-554.425 930.985,-545.25"/>
<polygon fill="black" stroke="black" points="933.724,-543.054 925.212,-536.747 927.933,-546.986 933.724,-543.054"/>
</g>
<!-- bj&#45;&gt;fd -->
<g id="edge75" class="edge"><title>bj&#45;&gt;fd</title>
<path fill="none" stroke="black" d="M23.3764,-32.9285C15.4236,-58.1633 0,-113.258 0,-161 0,-595 0,-595 0,-595 0,-640.154 13.8238,-655.688 49,-684 90.1672,-717.134 151.508,-729.561 190.624,-734.217"/>
<polygon fill="black" stroke="black" points="190.473,-737.721 200.79,-735.311 191.223,-730.761 190.473,-737.721"/>
</g>
<!-- zm&#45;&gt;lq -->
<g id="edge79" class="edge"><title>zm&#45;&gt;lq</title>
<path fill="none" stroke="black" d="M1807,-431.697C1807,-423.983 1807,-414.712 1807,-406.112"/>
<polygon fill="black" stroke="black" points="1810.5,-406.104 1807,-396.104 1803.5,-406.104 1810.5,-406.104"/>
</g>
<!-- zm&#45;&gt;jc -->
<g id="edge80" class="edge"><title>zm&#45;&gt;jc</title>
<path fill="none" stroke="black" d="M1814.5,-463.819C1828,-488.143 1855,-543.036 1855,-593 1855,-811 1855,-811 1855,-811 1855,-872.403 1787.9,-918.008 1748.67,-939.428"/>
<polygon fill="black" stroke="black" points="1746.56,-936.583 1739.35,-944.347 1749.83,-942.773 1746.56,-936.583"/>
</g>
<!-- rj&#45;&gt;cz -->
<g id="edge107" class="edge"><title>rj&#45;&gt;cz</title>
<path fill="none" stroke="black" d="M1330.94,-434.496C1333.38,-425.486 1336.59,-413.677 1339.41,-403.27"/>
<polygon fill="black" stroke="black" points="1342.83,-404.053 1342.07,-393.485 1336.07,-402.219 1342.83,-404.053"/>
</g>
<!-- rj&#45;&gt;pl -->
<g id="edge108" class="edge"><title>rj&#45;&gt;pl</title>
<path fill="none" stroke="black" d="M1330.04,-466.268C1334.93,-492.202 1344,-546.57 1344,-593 1344,-667 1344,-667 1344,-667 1344,-728.187 1277.41,-773.882 1238.46,-795.373"/>
<polygon fill="black" stroke="black" points="1236.39,-792.513 1229.21,-800.31 1239.68,-798.688 1236.39,-792.513"/>
</g>
</g>
</svg>
